<svg xmlns="http://www.w3.org/2000/svg" width="300" height="300" viewBox="0 0 300 300"><path d="M20 104L280 104L280 196L196 196L196 280L104 280L104 196L20 196Z" fill="#3a332b" stroke="#14110e" stroke-width="9" stroke-linejoin="round"/>
<path d="M20 104L280 104L280 126L20 126Z" fill="#4d4438"/>
<path d="M20 104L280 104L280 196L196 196L196 280L104 280L104 196L20 196Z" fill="none" stroke="#14110e" stroke-width="9" stroke-linejoin="round"/>
<path d="M33 90L59 90L59 210L33 210Z" fill="#4d4438" stroke="#14110e" stroke-width="8" stroke-linejoin="round"/><path d="M241 90L267 90L267 210L241 210Z" fill="#4d4438" stroke="#14110e" stroke-width="8" stroke-linejoin="round"/><path d="M90 241L210 241L210 267L90 267Z" fill="#4d4438" stroke="#14110e" stroke-width="8" stroke-linejoin="round"/></svg>
